<svg width="45" height="45" viewBox="0 0 45 45" fill="none" xmlns="http://www.w3.org/2000/svg">
<path d="M40.143 17.7571C40.143 17.3013 39.9619 16.8642 39.6396 16.5419C39.3173 16.2196 38.8802 16.0385 38.4244 16.0385C37.9686 16.0385 37.5315 16.2196 37.2092 16.5419C36.8869 16.8642 36.7058 17.3013 36.7058 17.7571H40.143ZM8.06289 17.7571C8.06289 17.3013 7.88183 16.8642 7.55954 16.5419C7.23724 16.2196 6.80011 16.0385 6.34432 16.0385C5.88852 16.0385 5.4514 16.2196 5.1291 16.5419C4.8068 16.8642 4.62574 17.3013 4.62574 17.7571H8.06289ZM41.7928 23.5544C41.9502 23.7233 42.1399 23.8587 42.3507 23.9527C42.5615 24.0466 42.7891 24.0971 43.0198 24.1012C43.2506 24.1052 43.4798 24.0628 43.6938 23.9764C43.9078 23.8899 44.1022 23.7613 44.2654 23.5981C44.4286 23.4349 44.5572 23.2405 44.6437 23.0265C44.7301 22.8125 44.7725 22.5833 44.7685 22.3525C44.7644 22.1218 44.7139 21.8942 44.62 21.6834C44.526 21.4726 44.3906 21.2829 44.2218 21.1255L41.7928 23.5544ZM22.3844 1.71706L23.5988 0.502604C23.2766 0.180771 22.8398 0 22.3844 0C21.9289 0 21.4921 0.180771 21.1699 0.502604L22.3844 1.71706ZM0.546985 21.1255C0.378136 21.2829 0.242708 21.4726 0.148777 21.6834C0.0548467 21.8942 0.00433885 22.1218 0.000267459 22.3525C-0.00380393 22.5833 0.0386441 22.8125 0.125079 23.0265C0.211515 23.2405 0.340166 23.4349 0.50336 23.5981C0.666553 23.7613 0.860945 23.8899 1.07494 23.9764C1.28893 24.0628 1.51814 24.1052 1.74889 24.1012C1.97965 24.0971 2.20722 24.0466 2.41803 23.9527C2.62884 23.8587 2.81857 23.7233 2.97591 23.5544L0.546985 21.1255ZM10.9272 44.6815H33.8415V41.2443H10.9272V44.6815ZM40.143 38.38V17.7571H36.7058V38.38H40.143ZM8.06289 38.38V17.7571H4.62574V38.38H8.06289ZM44.2218 21.1255L23.5988 0.502604L21.1699 2.93153L41.7928 23.5544L44.2218 21.1255ZM21.1699 0.502604L0.546985 21.1255L2.97591 23.5544L23.5988 2.93153L21.1699 0.502604ZM33.8415 44.6815C35.5128 44.6815 37.1156 44.0176 38.2973 42.8358C39.4791 41.6541 40.143 40.0513 40.143 38.38H36.7058C36.7058 39.9611 35.4226 41.2443 33.8415 41.2443V44.6815ZM10.9272 41.2443C9.3461 41.2443 8.06289 39.9611 8.06289 38.38H4.62574C4.62574 40.0513 5.28964 41.6541 6.47139 42.8358C7.65314 44.0176 9.25594 44.6815 10.9272 44.6815V41.2443Z" fill="#F8F8F8"/>
</svg>
